<?xml version="1.0" encoding="UTF-8"?>
<svg id="_レイヤー_2" data-name="レイヤー 2" xmlns="http://www.w3.org/2000/svg" viewBox="0 0 845.7 465.88">
  <defs>
    <style>
      .cls-1 {
        fill: #fff;
      }
    </style>
  </defs>
  <path class="cls-1" d="M63.52,96.98c-2.66,2.66-6.11,4.07-10.02,4.07s-7.36-1.41-10.18-4.07c-2.66-2.82-4.07-6.11-4.07-10.18h28.5c0,4.07-1.41,7.36-4.23,10.18ZM63.52,134.1c-2.66,2.66-6.11,4.07-10.02,4.07s-7.36-1.41-10.18-4.07c-2.66-2.82-4.07-6.11-4.07-10.18h28.5c0,4.07-1.41,7.36-4.23,10.18ZM55.38,197.99l-14.25-7.36c4.85-9.55,9.4-20.67,13.62-33.2l15.19,5.17c-4.39,14.25-9.24,26-14.56,35.39ZM133.21,105.75v8.77h30.22v82.37l-20.36-.16c-3.45,0-5.17-1.72-5.17-5.17s1.72-5.01,5.17-5.01h2.97v-54.34h-12.84v10.02h12.37c0,3.44-1.25,6.42-3.6,8.77-2.51,2.51-5.32,3.6-8.77,3.6v9.4h12.37c0,3.45-1.25,6.42-3.6,8.93-2.51,2.51-5.32,3.6-8.77,3.45v19.89h-17.85v-19.89c-3.45,0-6.26-1.25-8.61-3.6-2.35-2.35-3.6-5.32-3.6-8.77h12.22v-9.4c-3.45-.16-6.26-1.41-8.61-3.76-2.35-2.35-3.6-5.17-3.6-8.61h12.22v-10.18h-13v65.15h-16.91v-82.84h29.91v-8.61h-33.04v-20.98h33.04v-7.83c0-2.51.94-4.54,2.66-6.26,1.72-1.72,3.76-2.66,6.26-2.66s4.54.94,6.27,2.66,2.66,3.76,2.66,6.26v7.83h33.83v20.98h-33.83ZM143.7,78.03c0-2.82.94-5.17,2.98-7.2,1.88-2.04,4.23-2.98,7.05-2.98,2.98,0,5.32.94,7.36,2.98,1.88,2.04,2.98,4.38,2.98,7.2h-20.36Z"/>
  <path class="cls-1" d="M250.51,114.52h-17.07c-2.97,0-4.38-1.57-4.38-4.39,0-2.97,1.41-4.54,4.38-4.54h3.13l.47-11.9h-10.34c-2.35,11.12-5.48,20.2-9.55,27.09l-14.09-7.99c3.76-6.58,6.42-12.84,7.99-19.1h-8.46v-19.11h11.12v-4.07c0-2.04.78-3.76,2.35-5.32,1.57-1.41,3.29-2.04,5.32-2.04,5.01,0,7.52,2.51,7.52,7.83,0,1.1,0,2.35-.16,3.6h22.39c0,9.24-.31,22.55-.63,39.93ZM295.92,202.22c-3.76,0-6.73-1.25-9.24-3.6-2.51-2.51-3.76-5.64-3.76-9.4,0-1.72.31-3.44.94-5.17h-46.35c.63,1.72.94,3.29.94,5.01,0,3.6-1.25,6.73-3.76,9.24s-5.64,3.76-9.24,3.76-6.58-1.25-9.08-3.76l14.25-14.25h-6.26v-65.77h73.91v65.77h-7.67l14.41,14.41c-2.51,2.51-5.64,3.76-9.08,3.76ZM281.67,135.98h-41.5v33.67h41.5v-33.67ZM267.89,163.07c-1.88,2.04-4.39,2.98-7.2,2.98s-5.17-.94-7.2-2.98c-2.04-2.04-2.97-4.38-2.97-7.05h20.36c0,2.82-.94,5.17-2.97,7.05ZM268.05,148.35c-1.88,2.04-4.39,2.98-7.2,2.98s-5.32-.94-7.2-2.98c-2.04-2.04-2.97-4.39-2.97-7.2h20.36c0,2.82-.94,5.17-2.97,7.2ZM275.56,113.58v-41.03h41.81v41.03h-41.81ZM285.43,90.56c0,2.98,1.1,5.64,3.29,7.67,2.04,2.04,4.7,3.13,7.83,3.13,2.82,0,5.48-1.1,7.52-3.29,2.19-2.04,3.29-4.7,3.29-7.52h-21.92Z"/>
  <path class="cls-1" d="M626.99,125.8c-3.76,3.76-8.3,5.64-13.78,5.48v-8.14h-91.92l-.16-21.14h14.56c2.19-9.08,3.92-17.07,5.48-23.8,1.25-5.48,4.54-8.3,10.02-8.3,2.82,0,5.17.94,7.2,2.82,2.04,1.88,2.98,4.23,2.98,7.05,0,2.35-1.57,9.71-4.54,22.39h56.53v-10.02c5.48.16,10.18,2.04,13.94,5.95,3.92,3.76,5.79,8.46,5.64,13.94-.16,5.48-2.04,10.02-5.95,13.78ZM537.88,199.24v-58.25l72.51-.16v58.41h-72.51ZM554.95,164.48c0,5.17,1.72,9.71,5.48,13.31,3.6,3.6,7.99,5.32,13.15,5.32s9.71-1.72,13.31-5.32c3.6-3.6,5.48-8.14,5.48-13.31h-37.43Z"/>
  <path class="cls-1" d="M140.64,366.07c-25.24,8.53-45.88,15.01-62.08,19.1-1.54.51-2.56-.17-2.9-1.71l-1.36-7.5c-.17-1.54-.34-3.24-.34-4.95l3.07-92.09c0-1.53.85-2.22,2.56-2.22h16.88c1.54,0,2.39.68,2.39,2.22l-2.73,77.09c0,.68.34,1.02.85,1.54.51.34,1.02.51,1.54.34,8.87-2.39,20.81-6.31,35.81-11.6,1.71-.51,2.73-.17,3.07,1.54l4.78,15.18c.34,1.71-.17,2.56-1.54,3.07Z"/>
  <path class="cls-1" d="M321.59,294.27c0,1.54-.85,2.39-2.39,2.39h-38.2c-1.54,0-2.39.85-2.39,2.39l-1.54,25.07c-.17,1.54.68,2.39,2.22,2.39h37.86c1.54,0,2.22.68,2.22,2.22l-.68,12.28c-.17,1.54-1.02,2.39-2.56,2.39h-37.69c-1.71,0-2.56.85-2.56,2.39l-1.19,20.63c-.17,1.54.51,2.39,2.05,2.39,8.36,0,18.93-.17,32.06-.68.68,0,1.36.17,1.88.68.34.34.68.85.68,1.54l-.17,14.67c0,1.71-.85,2.56-2.56,2.73-22,.85-39.91,1.02-53.89.68-1.54-.17-2.39-1.02-2.39-2.56l-.17-9.21,1.88-30.7c.17-1.7-.68-2.56-2.22-2.56h-24.73c-1.54,0-2.39-.68-2.22-2.22l.68-12.28c.17-1.54,1.02-2.22,2.73-2.22h24.56c1.54,0,2.39-.85,2.56-2.56l1.54-25.07c0-1.54-.68-2.39-2.22-2.39h-23.88c-1.54,0-2.22-.85-2.05-2.39l.51-12.11c.17-1.54,1.02-2.39,2.73-2.39h88.17c1.53,0,2.39.85,2.22,2.39l-.85,12.11Z"/>
  <path class="cls-1" d="M476.11,304.16c-.17,1.54-.68,2.9-1.7,4.26-9.72,13.13-19.44,24.56-28.82,34.45-.17.34-.34.68-.17,1.19.17.51.51.68,1.02.68l8.36-.17c.68,0,1.36.17,1.71.68.34.51.51,1.02.51,1.88l-1.54,47.58c-.17,1.71-1.02,2.56-2.56,2.56h-17.05c-1.54,0-2.22-.85-2.22-2.39l1.36-39.06c0-.34-.17-.68-.51-.85-.51-.17-.85-.17-1.02.17-6.82,6.31-14.16,12.62-22,19.27-1.2,1.02-2.39.85-3.41-.51l-9.55-12.45c-1.02-1.36-.85-2.39.51-3.41,17.22-14.33,32.4-28.82,45.19-43.66.34-.34.34-.68.17-1.19-.17-.34-.51-.51-1.02-.51h-31.04c-1.71,0-2.56-.85-2.39-2.39l.68-12.11c.17-1.7,1.02-2.39,2.73-2.39h60.89c1.7,0,2.39.68,2.39,2.39l-.51,5.97ZM455.31,285.23l-14.5.85c-1.54.17-2.39-.68-2.56-2.22l-1.19-30.19c0-1.54.68-2.39,2.39-2.56l14.5-.68c1.54,0,2.39.68,2.56,2.39l1.02,30.02c.17,1.53-.68,2.39-2.22,2.39ZM493,368.8c-1.02,1.19-2.05,1.36-3.41.34-4.43-3.92-12.11-10.4-23.02-19.95-1.19-1.02-1.36-2.22-.34-3.24l7.84-8.87c1.19-1.19,2.22-1.36,3.41-.34s8.7,7.16,22.68,18.59c1.54,1.2,1.7,2.39.68,3.58l-7.84,9.89Z"/>
  <path class="cls-1" d="M675.32,328.04c-.17,1.71-1.02,2.56-2.56,2.56l-112.22.17c-1.54,0-2.22-.85-2.22-2.56l.68-12.11c.17-1.54,1.02-2.39,2.56-2.39l112.22-.17c1.71,0,2.39.85,2.39,2.56l-.85,11.94Z"/>
  <path class="cls-1" d="M827.62,347.14c-.34,1.54-1.36,2.05-2.9,1.54-1.36-.34-15.86-3.92-43.66-10.91-1.54-.34-2.39.34-2.39,1.88l-1.7,50.65c0,1.54-.68,2.39-2.22,2.39l-17.05-.17c-1.54,0-2.39-.68-2.39-2.22l3.75-118.36c0-1.71.85-2.39,2.56-2.39h16.88c1.54,0,2.39.68,2.39,2.39l-1.36,43.15c0,1.71.68,2.73,2.22,3.07,16.88,3.92,32.92,7.84,48.26,11.77,1.54.51,2.05,1.54,1.71,3.07l-4.09,14.15ZM825.92,297.51c0,1.54-.85,2.39-2.56,2.39h-7.68c-1.7,0-2.39-.85-2.39-2.39l1.36-15.52c.17-1.7,1.02-2.56,2.73-2.56h7.84c1.54,0,2.22.85,2.05,2.56l-1.36,15.52ZM844.33,297.51c-.17,1.54-1.02,2.39-2.73,2.39h-7.84c-1.54,0-2.22-.85-2.05-2.39l1.36-15.52c0-1.7.85-2.56,2.56-2.56h7.67c1.71,0,2.39.85,2.39,2.56l-1.36,15.52Z"/>
  <path class="cls-1" d="M416.23,85.02c0,1.86-.47,2.79-1.33,2.79h-32.59c-.86,0-1.43.74-1.71,2.23-3.71,25.86-9.98,52.09-18.62,78.69-.47,1.67-1.14,1.86-1.8.74l-7.41-10.79c-.66-.93-.86-2.23-.38-3.53,8.17-25.48,13.68-47.06,16.53-64.74.38-1.86,0-2.6-.86-2.6h-12.73c-.95,0-1.33-.93-1.33-2.79l.38-11.35c.1-1.67.57-2.6,1.43-2.6h59.57c.86,0,1.33.93,1.24,2.6l-.38,11.35ZM409.3,198.68c0,1.67-.47,2.6-1.33,2.6h-30.4c-.95,0-1.33-.93-1.23-2.6l1.23-52.46c.1-1.67.57-2.61,1.43-2.61h30.4c.95,0,1.33.93,1.33,2.61l-1.43,52.46ZM398.18,159.8h-8.55c-.86,0-1.33.93-1.33,2.61l-.57,20.09c-.1,1.86.38,2.79,1.23,2.79h8.46c.95,0,1.43-.93,1.52-2.79l.57-20.09c0-1.67-.38-2.61-1.33-2.61Z"/>
  <path class="cls-1" d="M466.99,179.93c2.11,0,3.66-.38,4.64-1.15.98-.76,1.69-2.22,2.14-4.37.44-2.15.81-5.66,1.1-10.54,1.23,1.43,2.85,2.87,4.86,4.3,2.01,1.43,3.8,2.39,5.38,2.87-.59,7.74-1.46,13.6-2.61,17.57-1.15,3.97-2.87,6.74-5.15,8.32-2.28,1.58-5.56,2.37-9.83,2.37h-21.43c-5.11,0-9.02-.77-11.75-2.29-2.73-1.53-4.65-4.14-5.78-7.82-1.13-3.68-1.69-8.96-1.69-15.85v-34.27h23.34v-13.34h-19.88v-10.9c-1.67,4.11-3.56,8.03-5.67,11.76-1.08-2.1-2.6-4.73-4.57-7.89-1.96-3.16-3.61-5.54-4.93-7.17,3.68-5.35,7.11-12.38,10.27-21.08,3.17-8.7,5.66-17.78,7.48-27.25l11.41,6.31c-1.13,4.97-1.91,8.32-2.36,10.04h39.33l-.15,8.46c-.29,22.94-.68,39.24-1.14,48.9-.47,9.66-1.21,15.87-2.25,18.64-.79,2.29-1.65,3.99-2.58,5.09-.93,1.1-2.04,1.89-3.31,2.37-.93.48-2.05.77-3.35.86-1.3.1-3.08.14-5.34.14-.1-2.77-.36-5.85-.77-9.25-.42-3.39-.97-6.38-1.66-8.96v11.47h-23.27v15.63c0,2.1.21,3.64.63,4.59.42.96,1.23,1.6,2.43,1.93,1.2.34,3.15.5,5.85.5h20.62ZM460.73,144.36c1.37.29,3.07.43,5.08.43.54,0,.98-.17,1.33-.5.34-.33.69-.93,1.03-1.79.54-1.53.96-5.57,1.25-12.12.29-6.55.54-16.94.74-31.19h-33.95c-.98,3.06-1.96,5.83-2.95,8.32h27.47v36.85Z"/>
</svg>