<svg width="320" height="95" viewBox="0 0 320 95" fill="none" xmlns="http://www.w3.org/2000/svg">
<path fill-rule="evenodd" clip-rule="evenodd" d="M-1 4.03119L12.375 2.34658C25.75 0.661976 52.5 -2.70724 79.25 4.03119C106 10.7696 132.75 27.6157 159.5 44.4618C186.25 61.3079 213 78.1539 239.75 79.8385C266.5 81.5231 293.25 68.0463 306.625 61.3079L320 54.5694V95H306.625C293.25 95 266.5 95 239.75 95C213 95 186.25 95 159.5 95C132.75 95 106 95 79.25 95C52.5 95 25.75 95 12.375 95H-1V4.03119Z" fill="#95C9E1"/>
</svg>
