<svg width="320" height="85" viewBox="0 0 320 85" fill="none" xmlns="http://www.w3.org/2000/svg">
<path fill-rule="evenodd" clip-rule="evenodd" d="M0 3.60686L13.3333 2.09958C26.6667 0.592295 53.3333 -2.42227 80 3.60686C106.667 9.63598 133.333 24.7088 160 39.7816C186.667 54.8544 213.333 69.9272 240 71.4345C266.667 72.9417 293.333 60.8835 306.667 54.8544L320 48.8253V85H306.667C293.333 85 266.667 85 240 85C213.333 85 186.667 85 160 85C133.333 85 106.667 85 80 85C53.3333 85 26.6667 85 13.3333 85H0V3.60686Z" fill="#F9F7F0"/>
</svg>
