<svg width="320" height="109" viewBox="0 0 320 109" fill="none" xmlns="http://www.w3.org/2000/svg">
<path fill-rule="evenodd" clip-rule="evenodd" d="M-1 4.62526L12.375 2.6924C25.75 0.759531 52.5 -3.1062 79.25 4.62526C106 12.3567 132.75 31.6854 159.5 51.014C186.25 70.3427 213 89.6713 239.75 91.6042C266.5 93.5371 293.25 78.0742 306.625 70.3427L320 62.6112V109H306.625C293.25 109 266.5 109 239.75 109C213 109 186.25 109 159.5 109C132.75 109 106 109 79.25 109C52.5 109 25.75 109 12.375 109H-1V4.62526Z" fill="#BDDBEC"/>
</svg>
